<svg width="20" height="18" viewBox="0 0 20 18" fill="none" xmlns="http://www.w3.org/2000/svg">
<path d="M17.496 0H2.46954C1.12108 0 0 1.12111 0 2.5044V15.0264C0 16.4097 1.12111 17.5308 2.46918 17.5308H17.4956C18.8789 17.5308 20 16.4097 20 15.0264V2.5044C20.0004 1.12111 18.9125 0 17.496 0ZM4.34784 2.5044C5.38521 2.5044 6.22614 3.34533 6.22614 4.3827C6.22614 5.42007 5.42004 6.26101 4.34784 6.26101C3.27564 6.26101 2.46954 5.42007 2.46954 4.3827C2.46954 3.34533 3.3453 2.5044 4.34784 2.5044ZM17.4568 14.6977C17.3473 14.9012 17.1359 15.0264 16.9051 15.0264H3.20951C2.9739 15.0264 2.75833 14.8942 2.6515 14.684C2.54467 14.474 2.56482 14.2219 2.7037 14.0313L5.44289 10.2747C5.56091 10.1115 5.74874 10.0176 5.94831 10.0176C6.14788 10.0176 6.33634 10.1131 6.45428 10.2749L7.72448 12.0166L11.3754 6.57343C11.4932 6.36666 11.6889 6.26101 11.8963 6.26101C12.1037 6.26101 12.3013 6.36556 12.4171 6.53982L17.4259 14.053C17.5546 14.2438 17.5664 14.4903 17.4568 14.6977Z" fill="#028AF3"/>
</svg>
