<svg width="56" height="80" viewBox="0 0 56 80" fill="none" xmlns="http://www.w3.org/2000/svg">
<path fill-rule="evenodd" clip-rule="evenodd" d="M27.7885 16.3462C30.4968 16.3462 32.6923 14.1506 32.6923 11.4423C32.6923 8.73399 30.4968 6.53846 27.7885 6.53846C25.0801 6.53846 22.8846 8.73399 22.8846 11.4423C22.8846 14.1506 25.0801 16.3462 27.7885 16.3462ZM39.2308 11.4423C39.2308 16.6257 35.7842 21.0041 31.0577 22.4108V27.7885H42.5V34.3269H31.0577V69.2665C31.0777 69.2619 31.0977 69.2574 31.1177 69.2529C33.442 68.7325 36.2541 68.767 38.3426 68.7926C38.7562 68.7977 39.1414 68.8025 39.4889 68.8025C42.26 68.8025 44.8236 68.6235 46.6392 67.8194C47.4739 67.4497 48.0177 67.0018 48.3699 66.4803C48.715 65.9694 49.0385 65.1489 49.0385 63.75V58.0288H42.5V51.4904H55.5769V52.3077V58.0288V63.75C55.5769 66.2147 54.9863 68.3662 53.7882 70.1401C52.5972 71.9033 50.9687 73.0529 49.2869 73.7978C46.0696 75.2227 42.2238 75.3409 39.4889 75.3409C38.9683 75.3409 38.4606 75.3363 37.9668 75.3319L37.9652 75.3319C35.8837 75.3132 34.0503 75.2967 32.5463 75.6334C31.6783 75.8278 31.3254 76.0673 31.2114 76.1775L31.2085 76.1799C31.1853 76.1984 31.0577 76.3001 31.0577 76.8269V79.2788H24.5192V76.8269C24.5192 76.3001 24.3916 76.1984 24.3684 76.1799L24.3655 76.1775C24.2516 76.0673 23.8986 75.8278 23.0306 75.6334C21.5266 75.2967 19.6932 75.3132 17.6117 75.3319L17.6101 75.3319C17.1163 75.3363 16.6086 75.3409 16.0881 75.3409C13.3532 75.3409 9.50728 75.2227 6.28999 73.7978C4.60825 73.0529 2.97972 71.9033 1.78873 70.1401C0.590623 68.3662 0 66.2147 0 63.75V58.0288V52.3077V51.4904H13.0769V58.0288H6.53846V63.75C6.53846 65.1489 6.86193 65.9694 7.20703 66.4803C7.55925 67.0018 8.10304 67.4497 8.93775 67.8194C10.7534 68.6235 13.3169 68.8025 16.0881 68.8025C16.4355 68.8025 16.8207 68.7977 17.2343 68.7926C19.3228 68.767 22.1349 68.7325 24.4593 69.2529C24.4792 69.2574 24.4992 69.2619 24.5192 69.2665V34.3269H13.0769V27.7885H24.5192V22.4108C19.7928 21.0041 16.3462 16.6257 16.3462 11.4423C16.3462 5.1229 21.469 0 27.7885 0C34.1079 0 39.2308 5.1229 39.2308 11.4423Z" fill="#C5DDEE"/>
</svg>
