<svg width="15" height="20" viewBox="0 0 15 20" fill="none" xmlns="http://www.w3.org/2000/svg">
<path d="M6.40272 18.7682C4.41685 16.3544 0 10.5043 0 7.21829C0 3.23147 3.27022 -0.000391006 7.30435 -0.000391006C11.337 -0.000391006 14.6087 3.23147 14.6087 7.21829C14.6087 10.5043 10.1576 16.3544 8.20598 18.7682C7.73804 19.3434 6.87065 19.3434 6.40272 18.7682ZM7.30435 9.62452C8.64728 9.62452 9.73913 8.54547 9.73913 7.21829C9.73913 5.89111 8.64728 4.81206 7.30435 4.81206C5.96141 4.81206 4.86957 5.89111 4.86957 7.21829C4.86957 8.54547 5.96141 9.62452 7.30435 9.62452Z" fill="#028AF3"/>
</svg>
